HIERARCHY
ROOT root
{
	OFFSET 0.000000 0.000000 0.000000
	CHANNELS 6 Xposition Yposition Zposition Zrotation Yrotation Xrotation
	JOINT lhip
	{
		OFFSET 0.058581 -0.082280 -0.017664
		CHANNELS 3 Zrotation Yrotation Xrotation
		JOINT lknee
		{
			OFFSET 0.043451 -0.386469 0.008037
			CHANNELS 3 Zrotation Yrotation Xrotation
			JOINT lankle
			{
				OFFSET -0.014790 -0.426874 -0.037428
				CHANNELS 3 Zrotation Yrotation Xrotation
				JOINT ltoe
				{
					OFFSET 0.041054 -0.060286 0.122042
					CHANNELS 3 Zrotation Yrotation Xrotation
					End Site
					{
						OFFSET 0.000000 0.000000 0.000000
					}
				}
			}
		}
	}
	JOINT rhip
	{
		OFFSET -0.060310 -0.090513 -0.013543
		CHANNELS 3 Zrotation Yrotation Xrotation
		JOINT rknee
		{
			OFFSET -0.043257 -0.383688 -0.004843
			CHANNELS 3 Zrotation Yrotation Xrotation
			JOINT rankle
			{
				OFFSET 0.019056 -0.420046 -0.034562
				CHANNELS 3 Zrotation Yrotation Xrotation
				JOINT rtoe
				{
					OFFSET -0.034840 -0.062106 0.130323
					CHANNELS 3 Zrotation Yrotation Xrotation
					End Site
					{
						OFFSET 0.000000 0.000000 0.000000
					}
				}
			}
		}
	}
	JOINT lowerback
	{
		OFFSET 0.004439 0.124404 -0.038385
		CHANNELS 3 Zrotation Yrotation Xrotation
		JOINT upperback
		{
			OFFSET 0.004488 0.137956 0.026820
			CHANNELS 3 Zrotation Yrotation Xrotation
			JOINT chest
			{
				OFFSET -0.002265 0.056032 0.002855
				CHANNELS 3 Zrotation Yrotation Xrotation
				JOINT lowerneck
				{
					OFFSET -0.013390 0.211636 -0.033468
					CHANNELS 3 Zrotation Yrotation Xrotation
					JOINT upperneck
					{
						OFFSET 0.010113 0.088937 0.050410
						CHANNELS 3 Zrotation Yrotation Xrotation
						End Site
						{
							OFFSET 0.000000 0.000000 0.000000
						}
					}
				}
				JOINT lclavicle
				{
					OFFSET 0.071702 0.114000 -0.018898
					CHANNELS 3 Zrotation Yrotation Xrotation
					JOINT lshoulder
					{
						OFFSET 0.122921 0.045205 -0.019046
						CHANNELS 3 Zrotation Yrotation Xrotation
						JOINT lelbow
						{
							OFFSET 0.255332 -0.015649 -0.022946
							CHANNELS 3 Zrotation Yrotation Xrotation
							JOINT lwrist
							{
								OFFSET 0.265709 0.012698 -0.007375
								CHANNELS 3 Zrotation Yrotation Xrotation
								End Site
								{
									OFFSET 0.000000 0.000000 0.000000
								}
							}
						}
					}
				}
				JOINT rclavicle
				{
					OFFSET -0.082954 0.112472 -0.023707
					CHANNELS 3 Zrotation Yrotation Xrotation
					JOINT rshoulder
					{
						OFFSET -0.113228 0.046853 -0.008472
						CHANNELS 3 Zrotation Yrotation Xrotation
						JOINT relbow
						{
							OFFSET -0.260127 -0.014369 -0.031269
							CHANNELS 3 Zrotation Yrotation Xrotation
							JOINT rwrist
							{
								OFFSET -0.269108 0.006794 -0.006027
								CHANNELS 3 Zrotation Yrotation Xrotation
								End Site
								{
									OFFSET 0.000000 0.000000 0.000000
								}
							}
						}
					}
				}
			}
		}
	}
}
MOTION
Frames: 11
Frame Time: 0.033333
0.996565 0.851843 0.865519 -168.150743 -1.954876 79.926418 -3.082126 -10.319192 -10.837156 -12.770963 -9.452720 55.336191 5.025585 23.258711 -41.520045 0.000000 -0.000000 0.000000 0.509892 6.089089 -22.870160 2.377360 -0.473826 66.502892 6.057172 -23.329190 -35.227865 0.000000 -0.000000 0.000000 -2.291451 4.158423 14.051933 2.740319 2.522715 -0.747811 -2.259769 -0.959559 9.147951 6.353518 7.394340 -22.708618 4.293522 -13.379529 -2.798299 -22.236060 4.242935 -1.463954 -27.830754 4.541927 8.971939 -4.615185 -28.009698 -2.246976 0.157925 -11.110731 -4.969091 31.238967 3.414328 -11.405210 45.664234 -0.494528 20.805343 -10.442369 22.773918 -7.559411 6.797840 -0.010901 7.880842 
1.003086 0.841865 0.844203 -162.967220 -2.490723 76.682529 -3.121251 -15.468674 -15.013950 -14.319222 -5.034251 63.964741 2.595137 20.166159 -37.829433 0.000000 -0.000000 0.000000 -1.437177 6.688303 -24.779181 -0.732787 -4.211547 75.350776 6.668299 -20.151198 -31.412073 0.000000 -0.000000 0.000000 -2.459762 5.300385 20.688096 1.985457 1.747785 0.530226 -2.173462 -0.561447 7.413162 6.362209 4.871780 -24.518407 5.856170 -14.990894 -5.940811 -23.788380 -0.928734 -0.304209 -33.987792 3.948288 10.444473 -1.105463 -28.160396 -4.305698 -2.151561 -11.538376 -5.877553 29.136352 6.986806 -9.509301 49.342450 -0.946833 20.393184 -10.819734 24.034773 -5.329884 7.065192 -0.471432 6.749354 
1.010852 0.836044 0.833297 -159.290362 -2.047262 76.464416 -1.805624 -14.232715 -16.979032 -14.691672 -5.656887 64.951139 3.468767 18.584374 -40.806910 0.000000 -0.000000 0.000000 -0.745007 5.607276 -24.637472 -1.390416 -4.275327 75.797993 6.404149 -21.131011 -34.260181 0.000000 -0.000000 0.000000 -2.703770 5.934988 20.723713 1.846560 1.439604 2.755540 -1.901685 -0.740594 6.967627 6.737463 2.751736 -24.874244 6.767590 -15.313100 -6.237925 -24.719151 -3.666430 1.177773 -39.794533 1.999446 10.825536 1.318427 -29.137045 -3.287448 2.030006 -11.193650 -8.450034 27.943915 9.417681 -7.561573 51.912150 -0.123161 19.524641 -11.296549 24.904048 -3.532350 7.222292 0.083042 5.917001 
1.017182 0.830347 0.833251 -156.630014 -1.691434 78.079400 -0.992259 -13.536115 -19.068937 -14.404176 -7.178116 64.017881 4.561350 18.121148 -43.439261 0.000000 -0.000000 0.000000 1.230947 6.154438 -22.993399 -2.783873 -4.430395 70.253183 5.773660 -26.432280 -41.661674 0.000000 -0.000000 0.000000 -3.378386 5.125350 19.854204 1.200372 1.098190 0.605490 -1.726389 -0.774654 7.913873 7.239054 1.114256 -23.725368 6.930094 -15.107037 -4.756025 -26.442503 -2.267121 0.475278 -43.499765 -0.561095 11.269563 2.528334 -28.969105 -2.885844 7.411203 -10.065913 -9.905613 29.046834 8.819160 -7.581913 53.097335 1.520014 19.851829 -10.744324 23.675828 -2.582049 3.581214 0.041209 6.418765 
1.023339 0.819391 0.844432 -155.201788 -2.099850 79.126554 -0.807998 -16.412504 -21.456955 -13.554734 -6.559703 62.606289 3.369605 17.059425 -39.490181 0.000000 -0.000000 0.000000 1.029037 7.470825 -23.791724 -3.885498 -4.691701 67.827942 5.931062 -26.006297 -39.979344 0.000000 -0.000000 0.000000 -3.833623 5.168384 21.168358 0.481704 0.985997 -1.101771 -1.731972 -0.821122 7.475328 7.103433 -0.852258 -23.463043 7.617493 -14.964792 -5.516754 -27.695627 -2.717017 0.303156 -46.914873 -2.423518 12.545921 5.289679 -28.279550 -6.172282 10.650944 -8.737158 -11.632913 28.477465 9.012635 -7.279495 54.987793 2.482508 20.230065 -11.127678 23.048645 -4.843792 -0.470696 -0.013327 3.922009 
1.027583 0.808348 0.861685 -155.314326 -1.618149 79.335409 -0.583375 -16.841152 -20.328847 -12.103684 -7.436172 57.852414 3.019292 17.804027 -37.691364 0.000000 -0.000000 0.000000 1.327996 7.341699 -22.799287 -3.670464 -5.025870 63.619630 5.186926 -24.977418 -38.042995 0.000000 -0.000000 0.000000 -2.533189 5.303180 22.496603 -0.416262 1.497683 -0.985536 -1.779822 -0.586030 6.269627 6.302396 -3.318141 -23.246204 8.348819 -14.674126 -6.487514 -27.916989 -5.125033 1.026392 -50.923995 -4.095071 13.007516 7.676245 -26.265125 -9.477457 13.541218 -7.769151 -13.341889 26.933780 11.464994 -5.508759 55.377417 2.941997 19.243080 -11.522454 23.499773 -5.498187 0.070026 0.725566 1.664015 
1.030431 0.799433 0.879607 -155.736227 -1.266048 80.689624 -0.633897 -16.117076 -19.299772 -10.274414 -9.442563 53.276324 4.191458 17.858532 -37.366569 0.000000 -0.000000 0.000000 1.321012 5.776109 -22.583706 -2.765453 -4.506008 58.905131 4.316665 -23.573753 -35.959787 0.000000 -0.000000 0.000000 -2.182039 5.217482 20.588810 -0.786425 1.542953 -0.093648 -1.502947 -0.339357 5.561221 5.739759 -4.911657 -22.288195 8.567667 -14.026742 -6.242803 -28.177996 -7.287550 1.348810 -53.435756 -5.611938 13.214979 9.025912 -23.790075 -10.153755 11.904859 -6.707260 -12.996288 25.736772 13.868356 -4.375094 54.343321 4.029606 18.450963 -10.888928 23.237366 -4.739285 1.727890 0.836008 0.716911 
1.034172 0.790710 0.898815 -157.303741 -0.851771 81.643960 0.317332 -15.838177 -18.145319 -9.171669 -10.087793 48.466777 3.200403 17.116990 -36.926928 0.000000 -0.000000 0.000000 1.711129 6.252555 -21.864896 -2.360616 -4.527079 54.017946 5.223747 -21.850272 -35.144882 0.000000 -0.000000 0.000000 -2.245603 5.361819 20.074972 -0.938035 1.580748 -0.629081 -1.179989 -0.140795 4.856186 5.417547 -5.521751 -21.081283 8.608030 -14.069205 -5.887201 -27.821017 -8.244368 1.153095 -55.613727 -6.830641 14.043746 9.705073 -22.277422 -8.020322 12.564227 -7.219526 -10.573028 24.664653 14.780331 -4.375444 54.329498 5.995129 17.567109 -11.571490 22.832712 -3.923482 1.436080 0.667363 0.702095 
1.034998 0.783635 0.917118 -158.427614 -0.603247 82.299054 0.326579 -15.656989 -16.588407 -7.941197 -11.084486 43.607877 2.774117 17.652972 -36.397873 0.000000 -0.000000 0.000000 2.043523 6.381417 -20.510361 -2.018444 -4.002641 49.102140 5.583421 -20.402392 -33.648839 0.000000 -0.000000 0.000000 -2.252275 5.036777 19.671152 -1.093639 1.309489 -1.457492 -1.053008 -0.270976 4.450083 5.499472 -4.911644 -20.935059 8.070910 -13.132365 -4.580959 -27.750738 -9.158771 1.271262 -56.111544 -7.651301 14.843490 9.798448 -22.733909 -6.663297 12.661867 -7.974608 -10.310855 23.954067 15.753899 -4.426487 53.622323 8.169178 17.164835 -12.497715 22.647818 -5.286523 1.696585 0.903180 -1.159107 
1.036184 0.777460 0.932824 -159.627528 -0.205221 83.042414 0.334626 -14.777956 -15.043128 -6.314791 -12.395886 38.920486 2.617254 17.427983 -36.097965 0.000000 -0.000000 0.000000 2.586879 6.288831 -19.386747 -1.780558 -3.213346 44.471956 6.102893 -19.021110 -32.571676 0.000000 -0.000000 0.000000 -2.196516 4.333900 18.305678 -1.255494 0.853434 -1.055580 -0.974477 -0.161203 3.792046 5.665275 -4.157510 -20.494999 7.746995 -12.451975 -3.608732 -27.006727 -10.170636 1.011109 -56.317470 -8.521218 15.380677 10.141400 -23.644997 -6.278359 11.208694 -8.276530 -11.430195 23.092739 17.021720 -4.562762 53.029772 10.660198 16.838188 -13.089766 22.792026 -6.944068 1.875989 1.028717 -3.235948 
1.036158 0.773227 0.945705 -160.308386 0.262888 84.025172 0.182484 -14.436332 -13.584825 -4.700805 -14.344866 34.627624 3.237818 17.719246 -36.088105 0.000000 -0.000000 0.000000 3.003062 6.100429 -18.633388 -1.528018 -2.758261 40.426113 6.113420 -18.558873 -31.905625 0.000000 -0.000000 0.000000 -1.885015 3.725539 16.076382 -1.285321 0.416200 -1.015330 -0.986790 -0.345895 3.858535 5.647647 -3.513125 -19.806299 7.309807 -11.306782 -2.713825 -26.411371 -10.847185 0.753998 -56.113512 -9.736226 15.981418 9.823724 -24.433506 -4.747187 11.121661 -8.667052 -11.427256 21.793605 17.209729 -5.185948 53.104978 12.882713 16.854301 -12.725069 23.317550 -7.257895 0.735191 1.295879 -4.721504 
